<svg width="444" height="311" viewBox="0 0 444 311" fill="none" xmlns="http://www.w3.org/2000/svg">
<g clip-path="url(#clip0_878_173)">
<rect width="444" height="311" fill="white"/>
<path d="M31.4347 41.4545H34.6591L38.9773 51.9943H39.1477L43.4659 41.4545H46.6903V56H44.1619V46.0071H44.027L40.0071 55.9574H38.1179L34.098 45.9858H33.9631V56H31.4347V41.4545ZM56.3991 51.4119V45.0909H58.9702V56H56.4773V54.0611H56.3636C56.1174 54.6719 55.7126 55.1714 55.1491 55.5597C54.5904 55.9479 53.9015 56.142 53.0824 56.142C52.3674 56.142 51.7353 55.9834 51.1861 55.6662C50.6416 55.3442 50.2154 54.8778 49.9077 54.267C49.5999 53.6515 49.446 52.9081 49.446 52.0369V45.0909H52.017V51.6392C52.017 52.3305 52.2064 52.8797 52.5852 53.2869C52.964 53.6941 53.4612 53.8977 54.0767 53.8977C54.4555 53.8977 54.8224 53.8054 55.1776 53.6207C55.5327 53.4361 55.8239 53.1615 56.0511 52.7969C56.2831 52.4276 56.3991 51.9659 56.3991 51.4119ZM64.185 41.4545V56H61.614V41.4545H64.185ZM72.2763 45.0909V47.0795H66.005V45.0909H72.2763ZM67.5533 42.4773H70.1243V52.7188C70.1243 53.0644 70.1764 53.3295 70.2805 53.5142C70.3894 53.6941 70.5315 53.8172 70.7067 53.8835C70.8819 53.9498 71.076 53.983 71.2891 53.983C71.45 53.983 71.5968 53.9711 71.7294 53.9474C71.8667 53.9238 71.9709 53.9025 72.0419 53.8835L72.4751 55.8935C72.3378 55.9408 72.1413 55.9929 71.8857 56.0497C71.6347 56.1065 71.3269 56.1397 70.9624 56.1491C70.3184 56.1681 69.7384 56.071 69.2223 55.858C68.7062 55.6402 68.2966 55.304 67.9936 54.8494C67.6953 54.3949 67.5485 53.8267 67.5533 53.1449V42.4773ZM74.4265 56V45.0909H76.9975V56H74.4265ZM75.7191 43.5426C75.3119 43.5426 74.9615 43.4077 74.668 43.1378C74.3744 42.8632 74.2276 42.5341 74.2276 42.1506C74.2276 41.7623 74.3744 41.4332 74.668 41.1634C74.9615 40.8887 75.3119 40.7514 75.7191 40.7514C76.131 40.7514 76.4814 40.8887 76.7702 41.1634C77.0638 41.4332 77.2106 41.7623 77.2106 42.1506C77.2106 42.5341 77.0638 42.8632 76.7702 43.1378C76.4814 43.4077 76.131 43.5426 75.7191 43.5426ZM79.6413 60.0909V45.0909H82.1697V46.8949H82.3189C82.4515 46.6297 82.6385 46.348 82.88 46.0497C83.1214 45.7467 83.4482 45.4886 83.8601 45.2756C84.272 45.0578 84.7976 44.9489 85.4368 44.9489C86.2796 44.9489 87.0395 45.1643 87.7166 45.5952C88.3984 46.0213 88.9382 46.6534 89.3359 47.4915C89.7384 48.3248 89.9396 49.3475 89.9396 50.5597C89.9396 51.7576 89.7431 52.7756 89.3501 53.6136C88.9571 54.4517 88.4221 55.0909 87.745 55.5312C87.0679 55.9716 86.3009 56.1918 85.4439 56.1918C84.8189 56.1918 84.3004 56.0876 83.8885 55.8793C83.4766 55.6709 83.1451 55.42 82.8942 55.1264C82.648 54.8281 82.4562 54.5464 82.3189 54.2812H82.2124V60.0909H79.6413ZM82.1626 50.5455C82.1626 51.2509 82.2621 51.8688 82.4609 52.3991C82.6645 52.9295 82.9557 53.3437 83.3345 53.642C83.718 53.9356 84.1821 54.0824 84.7266 54.0824C85.2947 54.0824 85.7706 53.9309 86.1541 53.6278C86.5376 53.3201 86.8265 52.901 87.0206 52.3707C87.2195 51.8357 87.3189 51.2273 87.3189 50.5455C87.3189 49.8684 87.2218 49.267 87.0277 48.7415C86.8336 48.2159 86.5447 47.804 86.1612 47.5057C85.7777 47.2074 85.2995 47.0582 84.7266 47.0582C84.1773 47.0582 83.7109 47.2027 83.3274 47.4915C82.9439 47.7803 82.6527 48.1851 82.4538 48.706C82.2597 49.2268 82.1626 49.84 82.1626 50.5455ZM94.7124 41.4545V56H92.1413V41.4545H94.7124ZM102.186 56.2131C101.092 56.2131 100.147 55.9858 99.3519 55.5312C98.5612 55.072 97.9528 54.4233 97.5266 53.5852C97.1005 52.7424 96.8874 51.7505 96.8874 50.6094C96.8874 49.4872 97.1005 48.5024 97.5266 47.6548C97.9575 46.8026 98.5588 46.1397 99.3306 45.6662C100.102 45.188 101.009 44.9489 102.051 44.9489C102.723 44.9489 103.358 45.0578 103.954 45.2756C104.556 45.4886 105.086 45.8201 105.545 46.2699C106.009 46.7197 106.374 47.2926 106.639 47.9886C106.904 48.6799 107.037 49.5038 107.037 50.4602V51.2486H98.0948V49.5156H104.572C104.567 49.0232 104.461 48.5852 104.252 48.2017C104.044 47.8134 103.753 47.508 103.379 47.2855C103.01 47.063 102.579 46.9517 102.086 46.9517C101.561 46.9517 101.099 47.0795 100.701 47.3352C100.304 47.5862 99.9935 47.9176 99.771 48.3295C99.5531 48.7367 99.4419 49.1842 99.4371 49.6719V51.1847C99.4371 51.8191 99.5531 52.3636 99.7852 52.8182C100.017 53.268 100.342 53.6136 100.758 53.8551C101.175 54.0919 101.663 54.2102 102.221 54.2102C102.595 54.2102 102.934 54.1581 103.237 54.054C103.54 53.9451 103.803 53.7865 104.025 53.5781C104.248 53.3698 104.416 53.1117 104.529 52.804L106.93 53.0739C106.779 53.7083 106.49 54.2623 106.064 54.7358C105.642 55.2045 105.102 55.5691 104.444 55.8295C103.786 56.0852 103.033 56.2131 102.186 56.2131ZM114.286 56V41.4545H116.857V46.8949H116.964C117.096 46.6297 117.283 46.348 117.525 46.0497C117.766 45.7467 118.093 45.4886 118.505 45.2756C118.917 45.0578 119.442 44.9489 120.082 44.9489C120.924 44.9489 121.684 45.1643 122.362 45.5952C123.043 46.0213 123.583 46.6534 123.981 47.4915C124.383 48.3248 124.585 49.3475 124.585 50.5597C124.585 51.7576 124.388 52.7756 123.995 53.6136C123.602 54.4517 123.067 55.0909 122.39 55.5312C121.713 55.9716 120.946 56.1918 120.089 56.1918C119.464 56.1918 118.945 56.0876 118.533 55.8793C118.121 55.6709 117.79 55.42 117.539 55.1264C117.293 54.8281 117.101 54.5464 116.964 54.2812H116.815V56H114.286ZM116.808 50.5455C116.808 51.2509 116.907 51.8688 117.106 52.3991C117.309 52.9295 117.601 53.3437 117.979 53.642C118.363 53.9356 118.827 54.0824 119.371 54.0824C119.94 54.0824 120.415 53.9309 120.799 53.6278C121.183 53.3201 121.471 52.901 121.665 52.3707C121.864 51.8357 121.964 51.2273 121.964 50.5455C121.964 49.8684 121.867 49.267 121.673 48.7415C121.478 48.2159 121.19 47.804 120.806 47.5057C120.423 47.2074 119.944 47.0582 119.371 47.0582C118.822 47.0582 118.356 47.2027 117.972 47.4915C117.589 47.7803 117.298 48.1851 117.099 48.706C116.905 49.2268 116.808 49.84 116.808 50.5455ZM129.909 56.2202C129.218 56.2202 128.596 56.0971 128.042 55.8509C127.492 55.5999 127.057 55.2306 126.735 54.7429C126.417 54.2552 126.259 53.6539 126.259 52.9389C126.259 52.3234 126.373 51.8144 126.6 51.4119C126.827 51.0095 127.137 50.6875 127.53 50.446C127.923 50.2045 128.366 50.0223 128.858 49.8991C129.355 49.7713 129.869 49.679 130.4 49.6222C131.039 49.5559 131.557 49.4967 131.955 49.4446C132.353 49.3878 132.641 49.3026 132.821 49.1889C133.006 49.0705 133.098 48.8883 133.098 48.642V48.5994C133.098 48.0644 132.94 47.6501 132.623 47.3565C132.305 47.063 131.848 46.9162 131.252 46.9162C130.622 46.9162 130.123 47.0535 129.753 47.3281C129.389 47.6027 129.142 47.9271 129.015 48.3011L126.614 47.9602C126.803 47.2973 127.116 46.7434 127.551 46.2983C127.987 45.8485 128.52 45.5123 129.15 45.2898C129.779 45.0625 130.475 44.9489 131.238 44.9489C131.763 44.9489 132.286 45.0104 132.807 45.1335C133.328 45.2566 133.804 45.4602 134.235 45.7443C134.666 46.0237 135.011 46.4048 135.272 46.8878C135.537 47.3707 135.669 47.9744 135.669 48.6989V56H133.198V54.5014H133.113C132.956 54.8045 132.736 55.0885 132.452 55.3537C132.173 55.6141 131.82 55.8248 131.394 55.9858C130.972 56.142 130.478 56.2202 129.909 56.2202ZM130.577 54.331C131.093 54.331 131.541 54.2292 131.919 54.0256C132.298 53.8172 132.589 53.5426 132.793 53.2017C133.001 52.8608 133.105 52.4891 133.105 52.0866V50.8011C133.025 50.8674 132.888 50.929 132.694 50.9858C132.504 51.0426 132.291 51.0923 132.054 51.1349C131.818 51.1776 131.583 51.2154 131.351 51.2486C131.119 51.2817 130.918 51.3101 130.748 51.3338C130.364 51.3859 130.021 51.4711 129.718 51.5895C129.415 51.7079 129.176 51.8736 129 52.0866C128.825 52.295 128.738 52.5649 128.738 52.8963C128.738 53.3698 128.91 53.7273 129.256 53.9688C129.602 54.2102 130.042 54.331 130.577 54.331ZM138.255 56V45.0909H140.748V46.9091H140.861C141.06 46.2794 141.401 45.794 141.884 45.4531C142.372 45.1075 142.928 44.9347 143.553 44.9347C143.695 44.9347 143.854 44.9418 144.029 44.956C144.209 44.9654 144.358 44.982 144.476 45.0057V47.3707C144.367 47.3329 144.194 47.2997 143.958 47.2713C143.726 47.2382 143.501 47.2216 143.283 47.2216C142.814 47.2216 142.393 47.3234 142.019 47.527C141.65 47.7259 141.358 48.0028 141.145 48.358C140.932 48.7131 140.826 49.1226 140.826 49.5866V56H138.255ZM154.806 47.9744L152.463 48.2301C152.396 47.9934 152.28 47.7708 152.115 47.5625C151.954 47.3542 151.736 47.1861 151.461 47.0582C151.187 46.9304 150.85 46.8665 150.453 46.8665C149.918 46.8665 149.468 46.9825 149.103 47.2145C148.743 47.4465 148.566 47.7472 148.571 48.1165C148.566 48.4337 148.682 48.6918 148.919 48.8906C149.16 49.0895 149.558 49.2528 150.112 49.3807L151.973 49.7784C153.005 50.0009 153.772 50.3537 154.274 50.8366C154.78 51.3196 155.036 51.9517 155.041 52.733C155.036 53.4195 154.835 54.0256 154.437 54.5511C154.044 55.072 153.497 55.4792 152.797 55.7727C152.096 56.0663 151.291 56.2131 150.382 56.2131C149.047 56.2131 147.972 55.9337 147.157 55.375C146.343 54.8116 145.858 54.0279 145.701 53.0241L148.208 52.7827C148.322 53.2751 148.564 53.6468 148.933 53.8977C149.302 54.1487 149.783 54.2741 150.375 54.2741C150.985 54.2741 151.475 54.1487 151.845 53.8977C152.219 53.6468 152.406 53.3366 152.406 52.9673C152.406 52.6548 152.285 52.3968 152.044 52.1932C151.807 51.9896 151.438 51.8333 150.936 51.7244L149.075 51.3338C148.029 51.116 147.254 50.7491 146.752 50.233C146.251 49.7121 146.002 49.054 146.007 48.2585C146.002 47.5862 146.184 47.0038 146.554 46.5114C146.928 46.0142 147.446 45.6307 148.109 45.3608C148.777 45.0862 149.546 44.9489 150.417 44.9489C151.696 44.9489 152.702 45.2211 153.436 45.7656C154.174 46.3101 154.631 47.0464 154.806 47.9744Z" fill="#1C1B4E"/>
<rect x="30" y="89" width="384" height="7" rx="3.5" fill="#E5E7EB"/>
<path d="M286 89H368.5C370.433 89 372 90.567 372 92.5V92.5C372 94.433 370.433 96 368.5 96H286V89Z" fill="#A21CAF"/>
<rect x="205" y="89" width="81" height="7" fill="#4F46E5"/>
<path d="M30 92.5C30 90.567 31.567 89 33.5 89H205V96H33.5C31.567 96 30 94.433 30 92.5V92.5Z" fill="#3B82F6"/>
<path d="M30 132L414 132" stroke="#E5E7EB" stroke-linecap="round" stroke-dasharray="10 10"/>
<path d="M33.3807 173.455L37.1662 184.903H37.3153L41.0938 173.455H43.9915L38.8636 188H35.6108L30.4901 173.455H33.3807ZM49.4513 188.213C48.3576 188.213 47.413 187.986 46.6175 187.531C45.8268 187.072 45.2184 186.423 44.7923 185.585C44.3661 184.742 44.1531 183.75 44.1531 182.609C44.1531 181.487 44.3661 180.502 44.7923 179.655C45.2231 178.803 45.8245 178.14 46.5962 177.666C47.368 177.188 48.2747 176.949 49.3164 176.949C49.9888 176.949 50.6232 177.058 51.2198 177.276C51.8211 177.489 52.3514 177.82 52.8107 178.27C53.2747 178.72 53.6393 179.293 53.9045 179.989C54.1696 180.68 54.3022 181.504 54.3022 182.46V183.249H45.3604V181.516H51.8377C51.833 181.023 51.7264 180.585 51.5181 180.202C51.3098 179.813 51.0186 179.508 50.6445 179.286C50.2752 179.063 49.8443 178.952 49.3519 178.952C48.8263 178.952 48.3647 179.08 47.967 179.335C47.5692 179.586 47.2591 179.918 47.0366 180.33C46.8188 180.737 46.7075 181.184 46.7028 181.672V183.185C46.7028 183.819 46.8188 184.364 47.0508 184.818C47.2828 185.268 47.6071 185.614 48.0238 185.855C48.4405 186.092 48.9281 186.21 49.4869 186.21C49.8609 186.21 50.1995 186.158 50.5025 186.054C50.8055 185.945 51.0683 185.786 51.2908 185.578C51.5134 185.37 51.6815 185.112 51.7951 184.804L54.1957 185.074C54.0442 185.708 53.7553 186.262 53.3292 186.736C52.9078 187.205 52.368 187.569 51.7099 187.83C51.0517 188.085 50.2989 188.213 49.4513 188.213ZM56.4773 188V177.091H58.9702V178.909H59.0838C59.2827 178.279 59.6236 177.794 60.1065 177.453C60.5942 177.107 61.1506 176.935 61.7756 176.935C61.9176 176.935 62.0762 176.942 62.2514 176.956C62.4313 176.965 62.5805 176.982 62.6989 177.006V179.371C62.59 179.333 62.4171 179.3 62.1804 179.271C61.9484 179.238 61.7235 179.222 61.5057 179.222C61.0369 179.222 60.6155 179.323 60.2415 179.527C59.8722 179.726 59.581 180.003 59.3679 180.358C59.1548 180.713 59.0483 181.123 59.0483 181.587V188H56.4773ZM70.4403 177.091V179.08H64.169V177.091H70.4403ZM65.7173 174.477H68.2884V184.719C68.2884 185.064 68.3404 185.33 68.4446 185.514C68.5535 185.694 68.6955 185.817 68.8707 185.884C69.0459 185.95 69.2401 185.983 69.4531 185.983C69.6141 185.983 69.7609 185.971 69.8935 185.947C70.0308 185.924 70.1349 185.902 70.206 185.884L70.6392 187.893C70.5019 187.941 70.3054 187.993 70.0497 188.05C69.7988 188.107 69.491 188.14 69.1264 188.149C68.4825 188.168 67.9025 188.071 67.3864 187.858C66.8703 187.64 66.4607 187.304 66.1577 186.849C65.8594 186.395 65.7126 185.827 65.7173 185.145V174.477ZM72.5906 188V177.091H75.1616V188H72.5906ZM73.8832 175.543C73.476 175.543 73.1256 175.408 72.832 175.138C72.5385 174.863 72.3917 174.534 72.3917 174.151C72.3917 173.762 72.5385 173.433 72.832 173.163C73.1256 172.889 73.476 172.751 73.8832 172.751C74.2951 172.751 74.6455 172.889 74.9343 173.163C75.2279 173.433 75.3746 173.762 75.3746 174.151C75.3746 174.534 75.2279 174.863 74.9343 175.138C74.6455 175.408 74.2951 175.543 73.8832 175.543ZM82.5639 188.213C81.4749 188.213 80.5398 187.974 79.7585 187.496C78.982 187.018 78.383 186.357 77.9616 185.514C77.545 184.667 77.3366 183.691 77.3366 182.588C77.3366 181.48 77.5497 180.502 77.9759 179.655C78.402 178.803 79.0033 178.14 79.7798 177.666C80.5611 177.188 81.4844 176.949 82.5497 176.949C83.4351 176.949 84.2188 177.112 84.9006 177.439C85.5871 177.761 86.134 178.218 86.5412 178.81C86.9484 179.397 87.1804 180.083 87.2372 180.869H84.7798C84.6804 180.344 84.4437 179.906 84.0696 179.555C83.7003 179.2 83.2055 179.023 82.5852 179.023C82.0597 179.023 81.598 179.165 81.2003 179.449C80.8026 179.728 80.4924 180.131 80.2699 180.656C80.0521 181.182 79.9432 181.812 79.9432 182.545C79.9432 183.289 80.0521 183.928 80.2699 184.463C80.4877 184.993 80.7931 185.403 81.1861 185.692C81.5838 185.976 82.0502 186.118 82.5852 186.118C82.964 186.118 83.3026 186.047 83.6009 185.905C83.9039 185.758 84.1572 185.547 84.3608 185.273C84.5644 184.998 84.7041 184.664 84.7798 184.271H87.2372C87.1757 185.043 86.9484 185.727 86.5554 186.324C86.1624 186.916 85.6274 187.38 84.9503 187.716C84.2732 188.047 83.4777 188.213 82.5639 188.213ZM92.4876 188.22C91.7963 188.22 91.1737 188.097 90.6197 187.851C90.0704 187.6 89.6348 187.231 89.3129 186.743C88.9956 186.255 88.837 185.654 88.837 184.939C88.837 184.323 88.9506 183.814 89.1779 183.412C89.4052 183.009 89.7153 182.688 90.1083 182.446C90.5013 182.205 90.944 182.022 91.4364 181.899C91.9336 181.771 92.4473 181.679 92.9776 181.622C93.6168 181.556 94.1353 181.497 94.533 181.445C94.9308 181.388 95.2196 181.303 95.3995 181.189C95.5842 181.071 95.6765 180.888 95.6765 180.642V180.599C95.6765 180.064 95.5179 179.65 95.2006 179.357C94.8834 179.063 94.4265 178.916 93.8299 178.916C93.2002 178.916 92.7006 179.054 92.3313 179.328C91.9667 179.603 91.7205 179.927 91.5927 180.301L89.1921 179.96C89.3815 179.297 89.694 178.743 90.1296 178.298C90.5652 177.848 91.0979 177.512 91.7276 177.29C92.3574 177.062 93.0534 176.949 93.8157 176.949C94.3413 176.949 94.8645 177.01 95.3853 177.134C95.9061 177.257 96.382 177.46 96.8129 177.744C97.2437 178.024 97.5894 178.405 97.8498 178.888C98.1149 179.371 98.2475 179.974 98.2475 180.699V188H95.7759V186.501H95.6907C95.5344 186.804 95.3143 187.089 95.0302 187.354C94.7508 187.614 94.3981 187.825 93.9719 187.986C93.5505 188.142 93.0558 188.22 92.4876 188.22ZM93.1552 186.331C93.6713 186.331 94.1187 186.229 94.4975 186.026C94.8763 185.817 95.1675 185.543 95.3711 185.202C95.5794 184.861 95.6836 184.489 95.6836 184.087V182.801C95.6031 182.867 95.4658 182.929 95.2717 182.986C95.0823 183.043 94.8692 183.092 94.6325 183.135C94.3957 183.178 94.1613 183.215 93.9293 183.249C93.6973 183.282 93.4961 183.31 93.3256 183.334C92.9421 183.386 92.5988 183.471 92.2958 183.589C91.9928 183.708 91.7537 183.874 91.5785 184.087C91.4033 184.295 91.3157 184.565 91.3157 184.896C91.3157 185.37 91.4885 185.727 91.8342 185.969C92.1798 186.21 92.6201 186.331 93.1552 186.331ZM103.404 173.455V188H100.833V173.455H103.404ZM111.009 192.091V177.091H113.537V178.895H113.686C113.819 178.63 114.006 178.348 114.247 178.05C114.489 177.747 114.815 177.489 115.227 177.276C115.639 177.058 116.165 176.949 116.804 176.949C117.647 176.949 118.407 177.164 119.084 177.595C119.766 178.021 120.305 178.653 120.703 179.491C121.106 180.325 121.307 181.348 121.307 182.56C121.307 183.758 121.11 184.776 120.717 185.614C120.324 186.452 119.789 187.091 119.112 187.531C118.435 187.972 117.668 188.192 116.811 188.192C116.186 188.192 115.668 188.088 115.256 187.879C114.844 187.671 114.512 187.42 114.261 187.126C114.015 186.828 113.823 186.546 113.686 186.281H113.58V192.091H111.009ZM113.53 182.545C113.53 183.251 113.629 183.869 113.828 184.399C114.032 184.929 114.323 185.344 114.702 185.642C115.085 185.936 115.549 186.082 116.094 186.082C116.662 186.082 117.138 185.931 117.521 185.628C117.905 185.32 118.194 184.901 118.388 184.371C118.587 183.836 118.686 183.227 118.686 182.545C118.686 181.868 118.589 181.267 118.395 180.741C118.201 180.216 117.912 179.804 117.528 179.506C117.145 179.207 116.667 179.058 116.094 179.058C115.545 179.058 115.078 179.203 114.695 179.491C114.311 179.78 114.02 180.185 113.821 180.706C113.627 181.227 113.53 181.84 113.53 182.545ZM123.509 188V177.091H126.001V178.909H126.115C126.314 178.279 126.655 177.794 127.138 177.453C127.625 177.107 128.182 176.935 128.807 176.935C128.949 176.935 129.107 176.942 129.283 176.956C129.463 176.965 129.612 176.982 129.73 177.006V179.371C129.621 179.333 129.448 179.3 129.212 179.271C128.98 179.238 128.755 179.222 128.537 179.222C128.068 179.222 127.647 179.323 127.273 179.527C126.903 179.726 126.612 180.003 126.399 180.358C126.186 180.713 126.08 181.123 126.08 181.587V188H123.509ZM135.748 188.213C134.682 188.213 133.759 187.979 132.978 187.51C132.196 187.041 131.59 186.385 131.159 185.543C130.733 184.7 130.52 183.715 130.52 182.588C130.52 181.461 130.733 180.474 131.159 179.626C131.59 178.779 132.196 178.121 132.978 177.652C133.759 177.183 134.682 176.949 135.748 176.949C136.813 176.949 137.736 177.183 138.517 177.652C139.299 178.121 139.902 178.779 140.328 179.626C140.759 180.474 140.975 181.461 140.975 182.588C140.975 183.715 140.759 184.7 140.328 185.543C139.902 186.385 139.299 187.041 138.517 187.51C137.736 187.979 136.813 188.213 135.748 188.213ZM135.762 186.153C136.339 186.153 136.822 185.995 137.211 185.678C137.599 185.356 137.888 184.925 138.077 184.385C138.271 183.845 138.368 183.244 138.368 182.581C138.368 181.913 138.271 181.31 138.077 180.77C137.888 180.225 137.599 179.792 137.211 179.47C136.822 179.148 136.339 178.987 135.762 178.987C135.17 178.987 134.677 179.148 134.284 179.47C133.896 179.792 133.605 180.225 133.411 180.77C133.221 181.31 133.127 181.913 133.127 182.581C133.127 183.244 133.221 183.845 133.411 184.385C133.605 184.925 133.896 185.356 134.284 185.678C134.677 185.995 135.17 186.153 135.762 186.153ZM147.901 192.318C146.978 192.318 146.185 192.193 145.522 191.942C144.859 191.696 144.326 191.364 143.924 190.947C143.522 190.531 143.242 190.069 143.086 189.562L145.401 189.001C145.505 189.214 145.657 189.425 145.856 189.634C146.055 189.847 146.322 190.022 146.658 190.159C146.999 190.301 147.428 190.372 147.944 190.372C148.673 190.372 149.277 190.195 149.755 189.839C150.233 189.489 150.472 188.911 150.472 188.107V186.04H150.344C150.212 186.305 150.018 186.577 149.762 186.857C149.511 187.136 149.177 187.37 148.761 187.56C148.349 187.749 147.83 187.844 147.205 187.844C146.367 187.844 145.607 187.647 144.925 187.254C144.248 186.857 143.709 186.265 143.306 185.479C142.908 184.688 142.71 183.698 142.71 182.51C142.71 181.312 142.908 180.301 143.306 179.477C143.709 178.649 144.251 178.021 144.933 177.595C145.614 177.164 146.374 176.949 147.212 176.949C147.852 176.949 148.377 177.058 148.789 177.276C149.206 177.489 149.537 177.747 149.783 178.05C150.03 178.348 150.217 178.63 150.344 178.895H150.487V177.091H153.022V188.178C153.022 189.11 152.799 189.882 152.354 190.493C151.909 191.104 151.301 191.561 150.529 191.864C149.757 192.167 148.881 192.318 147.901 192.318ZM147.923 185.827C148.467 185.827 148.931 185.694 149.315 185.429C149.698 185.164 149.989 184.783 150.188 184.286C150.387 183.788 150.487 183.192 150.487 182.496C150.487 181.809 150.387 181.208 150.188 180.692C149.994 180.176 149.705 179.776 149.322 179.491C148.943 179.203 148.477 179.058 147.923 179.058C147.35 179.058 146.871 179.207 146.488 179.506C146.104 179.804 145.816 180.214 145.621 180.734C145.427 181.25 145.33 181.838 145.33 182.496C145.33 183.163 145.427 183.748 145.621 184.25C145.82 184.747 146.112 185.135 146.495 185.415C146.883 185.689 147.359 185.827 147.923 185.827ZM155.657 188V177.091H158.15V178.909H158.263C158.462 178.279 158.803 177.794 159.286 177.453C159.774 177.107 160.33 176.935 160.955 176.935C161.097 176.935 161.256 176.942 161.431 176.956C161.611 176.965 161.76 176.982 161.879 177.006V179.371C161.77 179.333 161.597 179.3 161.36 179.271C161.128 179.238 160.903 179.222 160.685 179.222C160.217 179.222 159.795 179.323 159.421 179.527C159.052 179.726 158.761 180.003 158.548 180.358C158.335 180.713 158.228 181.123 158.228 181.587V188H155.657ZM167.967 188.213C166.873 188.213 165.929 187.986 165.133 187.531C164.342 187.072 163.734 186.423 163.308 185.585C162.882 184.742 162.669 183.75 162.669 182.609C162.669 181.487 162.882 180.502 163.308 179.655C163.739 178.803 164.34 178.14 165.112 177.666C165.884 177.188 166.79 176.949 167.832 176.949C168.504 176.949 169.139 177.058 169.735 177.276C170.337 177.489 170.867 177.82 171.326 178.27C171.79 178.72 172.155 179.293 172.42 179.989C172.685 180.68 172.818 181.504 172.818 182.46V183.249H163.876V181.516H170.353C170.349 181.023 170.242 180.585 170.034 180.202C169.825 179.813 169.534 179.508 169.16 179.286C168.791 179.063 168.36 178.952 167.868 178.952C167.342 178.952 166.88 179.08 166.483 179.335C166.085 179.586 165.775 179.918 165.552 180.33C165.334 180.737 165.223 181.184 165.218 181.672V183.185C165.218 183.819 165.334 184.364 165.566 184.818C165.798 185.268 166.123 185.614 166.539 185.855C166.956 186.092 167.444 186.21 168.002 186.21C168.377 186.21 168.715 186.158 169.018 186.054C169.321 185.945 169.584 185.786 169.806 185.578C170.029 185.37 170.197 185.112 170.311 184.804L172.711 185.074C172.56 185.708 172.271 186.262 171.845 186.736C171.423 187.205 170.884 187.569 170.225 187.83C169.567 188.085 168.815 188.213 167.967 188.213ZM183.615 179.974L181.271 180.23C181.205 179.993 181.089 179.771 180.923 179.562C180.762 179.354 180.545 179.186 180.27 179.058C179.995 178.93 179.659 178.866 179.261 178.866C178.726 178.866 178.277 178.982 177.912 179.214C177.552 179.446 177.375 179.747 177.379 180.116C177.375 180.434 177.491 180.692 177.727 180.891C177.969 181.089 178.366 181.253 178.92 181.381L180.781 181.778C181.813 182.001 182.58 182.354 183.082 182.837C183.589 183.32 183.845 183.952 183.849 184.733C183.845 185.42 183.643 186.026 183.246 186.551C182.853 187.072 182.306 187.479 181.605 187.773C180.904 188.066 180.099 188.213 179.19 188.213C177.855 188.213 176.78 187.934 175.966 187.375C175.152 186.812 174.666 186.028 174.51 185.024L177.017 184.783C177.131 185.275 177.372 185.647 177.741 185.898C178.111 186.149 178.591 186.274 179.183 186.274C179.794 186.274 180.284 186.149 180.653 185.898C181.027 185.647 181.214 185.337 181.214 184.967C181.214 184.655 181.094 184.397 180.852 184.193C180.616 183.99 180.246 183.833 179.744 183.724L177.884 183.334C176.837 183.116 176.063 182.749 175.561 182.233C175.059 181.712 174.811 181.054 174.815 180.259C174.811 179.586 174.993 179.004 175.362 178.511C175.736 178.014 176.255 177.631 176.918 177.361C177.585 177.086 178.355 176.949 179.226 176.949C180.504 176.949 181.51 177.221 182.244 177.766C182.983 178.31 183.44 179.046 183.615 179.974ZM194.592 179.974L192.248 180.23C192.182 179.993 192.066 179.771 191.9 179.562C191.739 179.354 191.521 179.186 191.246 179.058C190.972 178.93 190.636 178.866 190.238 178.866C189.703 178.866 189.253 178.982 188.888 179.214C188.529 179.446 188.351 179.747 188.356 180.116C188.351 180.434 188.467 180.692 188.704 180.891C188.945 181.089 189.343 181.253 189.897 181.381L191.758 181.778C192.79 182.001 193.557 182.354 194.059 182.837C194.566 183.32 194.821 183.952 194.826 184.733C194.821 185.42 194.62 186.026 194.222 186.551C193.829 187.072 193.282 187.479 192.582 187.773C191.881 188.066 191.076 188.213 190.167 188.213C188.832 188.213 187.757 187.934 186.942 187.375C186.128 186.812 185.643 186.028 185.487 185.024L187.994 184.783C188.107 185.275 188.349 185.647 188.718 185.898C189.087 186.149 189.568 186.274 190.16 186.274C190.771 186.274 191.261 186.149 191.63 185.898C192.004 185.647 192.191 185.337 192.191 184.967C192.191 184.655 192.07 184.397 191.829 184.193C191.592 183.99 191.223 183.833 190.721 183.724L188.86 183.334C187.814 183.116 187.04 182.749 186.538 182.233C186.036 181.712 185.787 181.054 185.792 180.259C185.787 179.586 185.969 179.004 186.339 178.511C186.713 178.014 187.231 177.631 187.894 177.361C188.562 177.086 189.331 176.949 190.202 176.949C191.481 176.949 192.487 177.221 193.221 177.766C193.96 178.31 194.416 179.046 194.592 179.974Z" fill="#1C1B4E"/>
<rect x="30" y="214" width="7" height="67" rx="3.5" fill="#E5E7EB"/>
<rect x="30" y="255" width="7" height="26" rx="3.5" fill="#3B82F6"/>
<rect x="57" y="214" width="7" height="67" rx="3.5" fill="#E5E7EB"/>
<rect x="57" y="243" width="7" height="38" rx="3.5" fill="#2DD4BF"/>
<rect x="84" y="214" width="7" height="67" rx="3.5" fill="#E5E7EB"/>
<rect x="84" y="233" width="7" height="48" rx="3.5" fill="#3B82F6"/>
<rect x="111" y="214" width="7" height="67" rx="3.5" fill="#E5E7EB"/>
<rect x="111" y="258" width="7" height="23" rx="3.5" fill="#2DD4BF"/>
<rect x="138" y="214" width="7" height="67" rx="3.5" fill="#E5E7EB"/>
<rect x="138" y="270" width="7" height="11" rx="3.5" fill="#3B82F6"/>
<rect x="165" y="214" width="7" height="67" rx="3.5" fill="#E5E7EB"/>
<rect x="165" y="255" width="7" height="26" rx="3.5" fill="#2DD4BF"/>
<rect x="192" y="214" width="7" height="67" rx="3.5" fill="#E5E7EB"/>
<rect x="192" y="230" width="7" height="51" rx="3.5" fill="#3B82F6"/>
<rect x="219" y="214" width="7" height="67" rx="3.5" fill="#E5E7EB"/>
<rect x="219" y="214" width="7" height="67" rx="3.5" fill="#2DD4BF"/>
<rect x="246" y="214" width="7" height="67" rx="3.5" fill="#E5E7EB"/>
<rect x="246" y="272" width="7" height="9" rx="3.5" fill="#3B82F6"/>
<rect x="273" y="214" width="7" height="67" rx="3.5" fill="#E5E7EB"/>
<rect x="273" y="252" width="7" height="29" rx="3.5" fill="#2DD4BF"/>
<rect x="300" y="214" width="7" height="67" rx="3.5" fill="#E5E7EB"/>
<rect x="300" y="235" width="7" height="46" rx="3.5" fill="#3B82F6"/>
<rect x="327" y="214" width="7" height="67" rx="3.5" fill="#E5E7EB"/>
<rect x="327" y="224" width="7" height="57" rx="3.5" fill="#2DD4BF"/>
<rect x="354" y="214" width="7" height="67" rx="3.5" fill="#E5E7EB"/>
<rect x="354" y="218" width="7" height="63" rx="3.5" fill="#3B82F6"/>
<rect x="381" y="214" width="7" height="67" rx="3.5" fill="#E5E7EB"/>
<rect x="381" y="253" width="7" height="28" rx="3.5" fill="#2DD4BF"/>
<rect x="408" y="214" width="7" height="67" rx="3.5" fill="#E5E7EB"/>
<rect x="408" y="239" width="7" height="42" rx="3.5" fill="#3B82F6"/>
</g>
<defs>
<clipPath id="clip0_878_173">
<rect width="444" height="311" fill="white"/>
</clipPath>
</defs>
</svg>
