<svg width="223" height="122" viewBox="0 0 223 122" fill="none" xmlns="http://www.w3.org/2000/svg">
<g clip-path="url(#clip0_876_591)">
<rect width="222" height="122" transform="translate(0.0332031)" fill="#1C1B4E"/>
<g clip-path="url(#clip1_876_591)">
<path d="M21.0332 20C21.6299 20 22.2022 19.7629 22.6242 19.341C23.0462 18.919 23.2832 18.3467 23.2832 17.75C23.2832 17.1533 23.0462 16.581 22.6242 16.159C22.2022 15.7371 21.6299 15.5 21.0332 15.5C20.4365 15.5 19.8642 15.7371 19.4422 16.159C19.0203 16.581 18.7832 17.1533 18.7832 17.75C18.7832 18.3467 19.0203 18.919 19.4422 19.341C19.8642 19.7629 20.4365 20 21.0332 20V20ZM22.5332 17.75C22.5332 18.1478 22.3752 18.5294 22.0939 18.8107C21.8126 19.092 21.431 19.25 21.0332 19.25C20.6354 19.25 20.2538 19.092 19.9725 18.8107C19.6912 18.5294 19.5332 18.1478 19.5332 17.75C19.5332 17.3522 19.6912 16.9706 19.9725 16.6893C20.2538 16.408 20.6354 16.25 21.0332 16.25C21.431 16.25 21.8126 16.408 22.0939 16.6893C22.3752 16.9706 22.5332 17.3522 22.5332 17.75V17.75ZM25.5332 23.75C25.5332 24.5 24.7832 24.5 24.7832 24.5H17.2832C17.2832 24.5 16.5332 24.5 16.5332 23.75C16.5332 23 17.2832 20.75 21.0332 20.75C24.7832 20.75 25.5332 23 25.5332 23.75ZM24.7832 23.747C24.7825 23.5625 24.6677 23.0075 24.1592 22.499C23.6702 22.01 22.75 21.5 21.0332 21.5C19.3157 21.5 18.3962 22.01 17.9072 22.499C17.3987 23.0075 17.2847 23.5625 17.2832 23.747H24.7832Z" fill="#9095AE"/>
<path d="M40.0719 25V15.5455H43.4419C44.1775 15.5455 44.7869 15.6793 45.2701 15.9471C45.7533 16.2148 46.1149 16.5811 46.3549 17.0458C46.595 17.5075 46.715 18.0276 46.715 18.6062C46.715 19.1879 46.5935 19.7111 46.3503 20.1758C46.1103 20.6374 45.7471 21.0037 45.2608 21.2745C44.7776 21.5423 44.1698 21.6761 43.4373 21.6761H41.1199V20.4666H43.3081C43.7728 20.4666 44.1498 20.3866 44.4391 20.2266C44.7284 20.0634 44.9408 19.8419 45.0762 19.5618C45.2116 19.2817 45.2793 18.9632 45.2793 18.6062C45.2793 18.2492 45.2116 17.9322 45.0762 17.6552C44.9408 17.3782 44.7269 17.1612 44.4345 17.0043C44.1452 16.8473 43.7636 16.7688 43.2896 16.7688H41.4984V25H40.0719ZM48.2765 25V17.9091H49.6107V19.0355H49.6846C49.8138 18.6539 50.0416 18.3538 50.3678 18.1353C50.6971 17.9137 51.0695 17.8029 51.485 17.8029C51.5712 17.8029 51.6727 17.806 51.7897 17.8121C51.9097 17.8183 52.0036 17.826 52.0713 17.8352V19.1555C52.0159 19.1402 51.9174 19.1232 51.7758 19.1048C51.6343 19.0832 51.4927 19.0724 51.3511 19.0724C51.0249 19.0724 50.734 19.1417 50.4786 19.2802C50.2262 19.4156 50.0262 19.6049 49.8785 19.848C49.7307 20.0881 49.6569 20.362 49.6569 20.6697V25H48.2765ZM55.9988 25.1431C55.334 25.1431 54.7538 24.9908 54.2583 24.6861C53.7628 24.3814 53.3781 23.9551 53.1042 23.4073C52.8303 22.8595 52.6934 22.2193 52.6934 21.4869C52.6934 20.7513 52.8303 20.1081 53.1042 19.5572C53.3781 19.0063 53.7628 18.5785 54.2583 18.2738C54.7538 17.9691 55.334 17.8168 55.9988 17.8168C56.6635 17.8168 57.2437 17.9691 57.7392 18.2738C58.2347 18.5785 58.6194 19.0063 58.8933 19.5572C59.1672 20.1081 59.3042 20.7513 59.3042 21.4869C59.3042 22.2193 59.1672 22.8595 58.8933 23.4073C58.6194 23.9551 58.2347 24.3814 57.7392 24.6861C57.2437 24.9908 56.6635 25.1431 55.9988 25.1431ZM56.0034 23.9844C56.4342 23.9844 56.7913 23.8705 57.0744 23.6428C57.3575 23.415 57.5668 23.1119 57.7022 22.7333C57.8407 22.3548 57.91 21.9377 57.91 21.4822C57.91 21.0298 57.8407 20.6143 57.7022 20.2358C57.5668 19.8542 57.3575 19.5479 57.0744 19.3171C56.7913 19.0863 56.4342 18.9709 56.0034 18.9709C55.5694 18.9709 55.2093 19.0863 54.9231 19.3171C54.64 19.5479 54.4292 19.8542 54.2907 20.2358C54.1552 20.6143 54.0875 21.0298 54.0875 21.4822C54.0875 21.9377 54.1552 22.3548 54.2907 22.7333C54.4292 23.1119 54.64 23.415 54.9231 23.6428C55.2093 23.8705 55.5694 23.9844 56.0034 23.9844ZM64.2195 17.9091V19.017H60.2124V17.9091H64.2195ZM61.3112 25V17.0874C61.3112 16.6442 61.4081 16.2764 61.602 15.984C61.7959 15.6886 62.0529 15.4685 62.373 15.3239C62.693 15.1761 63.0408 15.1023 63.4163 15.1023C63.6933 15.1023 63.9302 15.1254 64.1272 15.1715C64.3242 15.2146 64.4704 15.2546 64.5658 15.2915L64.2426 16.4087C64.178 16.3903 64.0949 16.3687 63.9933 16.3441C63.8918 16.3164 63.7687 16.3026 63.624 16.3026C63.2886 16.3026 63.0485 16.3857 62.9039 16.5518C62.7623 16.718 62.6915 16.9581 62.6915 17.272V25H61.3112ZM65.6437 25V17.9091H67.0241V25H65.6437ZM66.3408 16.815C66.1008 16.815 65.8946 16.735 65.7222 16.5749C65.5529 16.4118 65.4683 16.2179 65.4683 15.9933C65.4683 15.7655 65.5529 15.5716 65.7222 15.4116C65.8946 15.2485 66.1008 15.1669 66.3408 15.1669C66.5809 15.1669 66.7855 15.2485 66.9548 15.4116C67.1272 15.5716 67.2133 15.7655 67.2133 15.9933C67.2133 16.2179 67.1272 16.4118 66.9548 16.5749C66.7855 16.735 66.5809 16.815 66.3408 16.815ZM70.2614 15.5455V25H68.881V15.5455H70.2614ZM75.1744 25.1431C74.4758 25.1431 73.8741 24.9938 73.3694 24.6953C72.8677 24.3937 72.48 23.9705 72.2061 23.4258C71.9352 22.878 71.7998 22.2363 71.7998 21.5007C71.7998 20.7744 71.9352 20.1342 72.2061 19.5803C72.48 19.0263 72.8616 18.5939 73.3509 18.283C73.8434 17.9722 74.4189 17.8168 75.0775 17.8168C75.4776 17.8168 75.8654 17.8829 76.2409 18.0153C76.6163 18.1476 76.9533 18.3554 77.2519 18.6385C77.5504 18.9216 77.7858 19.2894 77.9582 19.7418C78.1305 20.1912 78.2167 20.7375 78.2167 21.3807V21.87H72.58V20.8359H76.8641C76.8641 20.4728 76.7902 20.1512 76.6425 19.8711C76.4948 19.5879 76.287 19.3648 76.0193 19.2017C75.7546 19.0386 75.4437 18.957 75.0867 18.957C74.699 18.957 74.3604 19.0524 74.0711 19.2433C73.7849 19.431 73.5633 19.6772 73.4063 19.9819C73.2525 20.2835 73.1755 20.6113 73.1755 20.9652V21.7731C73.1755 22.247 73.2586 22.6502 73.4248 22.9826C73.5941 23.315 73.8295 23.5689 74.1311 23.7443C74.4327 23.9167 74.7851 24.0028 75.1883 24.0028C75.4499 24.0028 75.6884 23.9659 75.9039 23.892C76.1193 23.8151 76.3055 23.7012 76.4624 23.5504C76.6194 23.3996 76.7394 23.2134 76.8225 22.9918L78.129 23.2273C78.0244 23.612 77.8366 23.949 77.5658 24.2383C77.298 24.5245 76.961 24.7476 76.5548 24.9077C76.1516 25.0646 75.6915 25.1431 75.1744 25.1431Z" fill="white"/>
<rect x="177.033" y="12" width="30" height="16" rx="8" fill="#2563EB"/>
<path d="M188.388 17.1818V23H187.451L184.709 19.0369H184.661V23H183.607V17.1818H184.55L187.289 21.1477H187.34V17.1818H188.388ZM191.423 23.0852C190.986 23.0852 190.608 22.9943 190.29 22.8125C189.973 22.6288 189.73 22.3693 189.559 22.0341C189.389 21.697 189.304 21.3002 189.304 20.8438C189.304 20.3949 189.389 20.0009 189.559 19.6619C189.732 19.321 189.972 19.0559 190.281 18.8665C190.59 18.6752 190.952 18.5795 191.369 18.5795C191.638 18.5795 191.892 18.6231 192.131 18.7102C192.371 18.7955 192.583 18.928 192.767 19.108C192.952 19.2879 193.098 19.517 193.204 19.7955C193.31 20.072 193.363 20.4015 193.363 20.7841V21.0994H189.787V20.4062H192.378C192.376 20.2093 192.333 20.0341 192.25 19.8807C192.166 19.7254 192.05 19.6032 191.9 19.5142C191.753 19.4252 191.58 19.3807 191.383 19.3807C191.173 19.3807 190.988 19.4318 190.829 19.5341C190.67 19.6345 190.546 19.767 190.457 19.9318C190.37 20.0947 190.326 20.2737 190.324 20.4688V21.0739C190.324 21.3277 190.37 21.5455 190.463 21.7273C190.556 21.9072 190.685 22.0455 190.852 22.142C191.019 22.2367 191.214 22.2841 191.437 22.2841C191.587 22.2841 191.722 22.2633 191.844 22.2216C191.965 22.178 192.07 22.1146 192.159 22.0312C192.248 21.9479 192.315 21.8447 192.361 21.7216L193.321 21.8295C193.26 22.0833 193.145 22.3049 192.974 22.4943C192.806 22.6818 192.59 22.8277 192.327 22.9318C192.063 23.0341 191.762 23.0852 191.423 23.0852ZM195.111 23L193.878 18.6364H194.926L195.693 21.7045H195.733L196.517 18.6364H197.554L198.338 21.6875H198.381L199.136 18.6364H200.187L198.952 23H197.881L197.062 20.0511H197.003L196.184 23H195.111Z" fill="white"/>
<rect x="0.0332031" y="40" width="222" height="1" fill="#37416C"/>
<g clip-path="url(#clip2_876_591)">
<path d="M21.0331 58.5654C20.7134 58.5654 20.3969 58.6284 20.1015 58.7507C19.8061 58.8731 19.5377 59.0524 19.3117 59.2785C19.0856 59.5045 18.9063 59.7729 18.7839 60.0683C18.6616 60.3637 18.5986 60.6802 18.5986 60.9999C18.5986 61.3196 18.6616 61.6362 18.7839 61.9316C18.9063 62.2269 19.0856 62.4953 19.3117 62.7214C19.5377 62.9474 19.8061 63.1268 20.1015 63.2491C20.3969 63.3715 20.7134 63.4344 21.0331 63.4344C21.6788 63.4344 22.298 63.1779 22.7546 62.7214C23.2111 62.2648 23.4676 61.6456 23.4676 60.9999C23.4676 60.3543 23.2111 59.735 22.7546 59.2785C22.298 58.8219 21.6788 58.5654 21.0331 58.5654V58.5654ZM19.3486 60.9999C19.3486 60.5532 19.5261 60.1247 19.842 59.8088C20.1579 59.4929 20.5864 59.3154 21.0331 59.3154C21.4799 59.3154 21.9083 59.4929 22.2243 59.8088C22.5402 60.1247 22.7176 60.5532 22.7176 60.9999C22.7176 61.4467 22.5402 61.8751 22.2243 62.1911C21.9083 62.507 21.4799 62.6844 21.0331 62.6844C20.5864 62.6844 20.1579 62.507 19.842 62.1911C19.5261 61.8751 19.3486 61.4467 19.3486 60.9999Z" fill="#9095AE"/>
<path d="M22.3803 56.0074C21.9851 54.6649 20.0816 54.6649 19.6863 56.0074L19.6158 56.2466C19.5882 56.3403 19.54 56.4267 19.4747 56.4993C19.4094 56.572 19.3286 56.6291 19.2384 56.6665C19.1481 56.7039 19.0506 56.7206 18.9531 56.7155C18.8555 56.7103 18.7604 56.6833 18.6746 56.6366L18.4556 56.5166C17.2256 55.8476 15.8808 57.1931 16.5506 58.4224L16.6698 58.6414C16.7165 58.7272 16.7435 58.8223 16.7487 58.9199C16.7538 59.0174 16.7371 59.1149 16.6997 59.2052C16.6623 59.2954 16.6052 59.3762 16.5325 59.4415C16.4599 59.5068 16.3735 59.555 16.2798 59.5826L16.0406 59.6531C14.6981 60.0484 14.6981 61.9519 16.0406 62.3471L16.2798 62.4176C16.3735 62.4452 16.4599 62.4934 16.5325 62.5588C16.6052 62.6241 16.6623 62.7048 16.6997 62.7951C16.7371 62.8853 16.7538 62.9828 16.7487 63.0803C16.7435 63.1779 16.7165 63.2731 16.6698 63.3589L16.5498 63.5779C15.8808 64.8079 17.2256 66.1534 18.4556 65.4829L18.6746 65.3636C18.7604 65.3169 18.8555 65.2899 18.9531 65.2848C19.0506 65.2796 19.1481 65.2963 19.2384 65.3337C19.3286 65.3711 19.4094 65.4282 19.4747 65.5009C19.54 65.5735 19.5882 65.6599 19.6158 65.7536L19.6863 65.9929C20.0816 67.3354 21.9851 67.3354 22.3803 65.9929L22.4508 65.7536C22.4784 65.6599 22.5266 65.5735 22.592 65.5009C22.6573 65.4282 22.738 65.3711 22.8283 65.3337C22.9185 65.2963 23.016 65.2796 23.1136 65.2848C23.2111 65.2899 23.3063 65.3169 23.3921 65.3636L23.6111 65.4836C24.8411 66.1534 26.1866 64.8071 25.5161 63.5779L25.3968 63.3589C25.3501 63.2731 25.3231 63.1779 25.318 63.0803C25.3128 62.9828 25.3295 62.8853 25.3669 62.7951C25.4043 62.7048 25.4614 62.6241 25.5341 62.5588C25.6068 62.4934 25.6931 62.4452 25.7868 62.4176L26.0261 62.3471C27.3686 61.9519 27.3686 60.0484 26.0261 59.6531L25.7868 59.5826C25.6931 59.555 25.6068 59.5068 25.5341 59.4415C25.4614 59.3762 25.4043 59.2954 25.3669 59.2052C25.3295 59.1149 25.3128 59.0174 25.318 58.9199C25.3231 58.8223 25.3501 58.7272 25.3968 58.6414L25.5168 58.4224C26.1866 57.1924 24.8403 55.8476 23.6111 56.5174L23.3921 56.6366C23.3063 56.6833 23.2111 56.7103 23.1136 56.7155C23.016 56.7206 22.9185 56.7039 22.8283 56.6665C22.738 56.6291 22.6573 56.572 22.592 56.4993C22.5266 56.4267 22.4784 56.3403 22.4508 56.2466L22.3803 56.0074V56.0074ZM20.4056 56.2196C20.5901 55.5934 21.4766 55.5934 21.6611 56.2196L21.7316 56.4589C21.7908 56.6599 21.8943 56.8452 22.0345 57.001C22.1747 57.1569 22.348 57.2794 22.5416 57.3596C22.7353 57.4398 22.9445 57.4756 23.1538 57.4645C23.3631 57.4533 23.5673 57.3954 23.7513 57.2951L23.9696 57.1751C24.5426 56.8639 25.1696 57.4901 24.8576 58.0639L24.7383 58.2829C24.6381 58.4669 24.5804 58.6711 24.5694 58.8804C24.5584 59.0896 24.5943 59.2987 24.6745 59.4923C24.7548 59.6859 24.8773 59.8591 25.0332 59.9991C25.1891 60.1392 25.3743 60.2427 25.5753 60.3019L25.8138 60.3724C26.4401 60.5569 26.4401 61.4434 25.8138 61.6279L25.5746 61.6984C25.3735 61.7576 25.1883 61.8611 25.0324 62.0013C24.8765 62.1415 24.754 62.3147 24.6738 62.5084C24.5936 62.7021 24.5578 62.9113 24.569 63.1206C24.5801 63.3299 24.638 63.5341 24.7383 63.7181L24.8583 63.9364C25.1696 64.5094 24.5433 65.1364 23.9696 64.8244L23.7513 64.7051C23.5672 64.6048 23.363 64.547 23.1536 64.5359C22.9443 64.5247 22.7351 64.5606 22.5414 64.6409C22.3477 64.7212 22.1745 64.8438 22.0343 64.9997C21.8942 65.1557 21.7907 65.341 21.7316 65.5421L21.6611 65.7806C21.4766 66.4069 20.5901 66.4069 20.4056 65.7806L20.3351 65.5414C20.2758 65.3404 20.1723 65.1553 20.0322 64.9995C19.892 64.8437 19.7189 64.7212 19.5253 64.6411C19.3317 64.5609 19.1226 64.525 18.9134 64.5361C18.7042 64.5472 18.5001 64.6049 18.3161 64.7051L18.0971 64.8251C17.5241 65.1364 16.8971 64.5101 17.2091 63.9364L17.3283 63.7181C17.4288 63.534 17.4868 63.3298 17.498 63.1204C17.5092 62.911 17.4734 62.7017 17.3932 62.5079C17.313 62.3142 17.1905 62.1408 17.0345 62.0006C16.8786 61.8604 16.6932 61.7569 16.4921 61.6976L16.2528 61.6271C15.6266 61.4426 15.6266 60.5561 16.2528 60.3716L16.4921 60.3011C16.6929 60.2418 16.878 60.1383 17.0337 59.9983C17.1894 59.8582 17.3118 59.6851 17.392 59.4916C17.4721 59.2981 17.508 59.0892 17.497 58.88C17.486 58.6709 17.4284 58.4669 17.3283 58.2829L17.2083 58.0639C16.8971 57.4909 17.5233 56.8639 18.0971 57.1759L18.3161 57.2951C18.5001 57.3953 18.7042 57.453 18.9134 57.4641C19.1226 57.4752 19.3317 57.4394 19.5253 57.3592C19.7189 57.279 19.892 57.1565 20.0322 57.0008C20.1723 56.845 20.2758 56.6598 20.3351 56.4589L20.4056 56.2196V56.2196Z" fill="#9095AE"/>
</g>
<path d="M45.2285 59.0291C45.1793 58.5921 44.9761 58.2536 44.6191 58.0135C44.2621 57.7704 43.8128 57.6488 43.2711 57.6488C42.8833 57.6488 42.5479 57.7103 42.2647 57.8335C41.9816 57.9535 41.7615 58.1197 41.6046 58.332C41.4507 58.5413 41.3738 58.7798 41.3738 59.0476C41.3738 59.2723 41.4261 59.4661 41.5307 59.6293C41.6384 59.7924 41.7785 59.9293 41.9508 60.0401C42.1262 60.1478 42.314 60.2386 42.514 60.3125C42.7141 60.3833 42.9064 60.4418 43.0911 60.4879L44.0144 60.728C44.316 60.8018 44.6253 60.9019 44.9423 61.0281C45.2593 61.1542 45.5532 61.3204 45.824 61.5266C46.0949 61.7328 46.3134 61.9883 46.4796 62.293C46.6489 62.5977 46.7335 62.9624 46.7335 63.3871C46.7335 63.9226 46.595 64.3981 46.318 64.8136C46.0441 65.229 45.6455 65.5568 45.1223 65.7969C44.6022 66.0369 43.9728 66.157 43.2342 66.157C42.5263 66.157 41.9139 66.0446 41.3968 65.82C40.8798 65.5953 40.4751 65.2768 40.1827 64.8643C39.8903 64.4489 39.7288 63.9564 39.698 63.3871H41.1291C41.1568 63.7287 41.2676 64.0134 41.4615 64.2411C41.6584 64.4658 41.9093 64.6335 42.214 64.7443C42.5217 64.852 42.8587 64.9059 43.225 64.9059C43.6281 64.9059 43.9867 64.8428 44.3006 64.7166C44.6176 64.5874 44.8669 64.4089 45.0485 64.1811C45.2301 63.9503 45.3208 63.681 45.3208 63.3732C45.3208 63.0932 45.2408 62.8639 45.0808 62.6854C44.9238 62.5069 44.7099 62.3591 44.4391 62.2422C44.1713 62.1252 43.8682 62.0221 43.5297 61.9329L42.4125 61.6282C41.6554 61.422 41.0552 61.1188 40.612 60.7188C40.1719 60.3187 39.9519 59.7893 39.9519 59.1307C39.9519 58.5859 40.0996 58.1104 40.3951 57.7042C40.6905 57.2979 41.0906 56.9825 41.5953 56.7578C42.1001 56.5301 42.6694 56.4162 43.3034 56.4162C43.9436 56.4162 44.5083 56.5285 44.9977 56.7532C45.4901 56.9779 45.8779 57.2872 46.161 57.6811C46.4442 58.072 46.5919 58.5213 46.6042 59.0291H45.2285ZM51.3834 66.1431C50.6848 66.1431 50.0831 65.9938 49.5784 65.6953C49.0767 65.3937 48.689 64.9705 48.415 64.4258C48.1442 63.878 48.0088 63.2363 48.0088 62.5007C48.0088 61.7744 48.1442 61.1342 48.415 60.5803C48.689 60.0263 49.0706 59.5939 49.5599 59.283C50.0523 58.9722 50.6279 58.8168 51.2865 58.8168C51.6866 58.8168 52.0744 58.8829 52.4498 59.0153C52.8253 59.1476 53.1623 59.3554 53.4608 59.6385C53.7594 59.9216 53.9948 60.2894 54.1672 60.7418C54.3395 61.1912 54.4257 61.7375 54.4257 62.3807V62.87H48.789V61.8359H53.0731C53.0731 61.4728 52.9992 61.1512 52.8515 60.8711C52.7037 60.5879 52.496 60.3648 52.2282 60.2017C51.9636 60.0386 51.6527 59.957 51.2957 59.957C50.9079 59.957 50.5694 60.0524 50.2801 60.2433C49.9939 60.431 49.7723 60.6772 49.6153 60.9819C49.4614 61.2835 49.3845 61.6113 49.3845 61.9652V62.7731C49.3845 63.247 49.4676 63.6502 49.6338 63.9826C49.8031 64.315 50.0385 64.5689 50.3401 64.7443C50.6417 64.9167 50.9941 65.0028 51.3973 65.0028C51.6589 65.0028 51.8974 64.9659 52.1128 64.892C52.3283 64.8151 52.5145 64.7012 52.6714 64.5504C52.8284 64.3996 52.9484 64.2134 53.0315 63.9918L54.338 64.2273C54.2333 64.612 54.0456 64.949 53.7748 65.2383C53.507 65.5245 53.17 65.7476 52.7638 65.9077C52.3606 66.0646 51.9005 66.1431 51.3834 66.1431ZM59.2672 58.9091V60.017H55.394V58.9091H59.2672ZM56.4327 57.2102H57.813V63.918C57.813 64.1857 57.853 64.3873 57.9331 64.5227C58.0131 64.6551 58.1162 64.7459 58.2424 64.7951C58.3716 64.8413 58.5117 64.8643 58.6625 64.8643C58.7733 64.8643 58.8702 64.8567 58.9533 64.8413C59.0364 64.8259 59.101 64.8136 59.1472 64.8043L59.3965 65.9446C59.3165 65.9754 59.2026 66.0062 59.0549 66.0369C58.9071 66.0708 58.7225 66.0893 58.5009 66.0923C58.1377 66.0985 57.7992 66.0339 57.4853 65.8984C57.1713 65.763 56.9174 65.5537 56.7235 65.2706C56.5297 64.9875 56.4327 64.632 56.4327 64.2042V57.2102ZM64.1041 58.9091V60.017H60.2309V58.9091H64.1041ZM61.2696 57.2102H62.6499V63.918C62.6499 64.1857 62.69 64.3873 62.77 64.5227C62.85 64.6551 62.9531 64.7459 63.0793 64.7951C63.2085 64.8413 63.3486 64.8643 63.4994 64.8643C63.6102 64.8643 63.7071 64.8567 63.7902 64.8413C63.8733 64.8259 63.9379 64.8136 63.9841 64.8043L64.2334 65.9446C64.1534 65.9754 64.0395 66.0062 63.8918 66.0369C63.7441 66.0708 63.5594 66.0893 63.3378 66.0923C62.9746 66.0985 62.6361 66.0339 62.3222 65.8984C62.0083 65.763 61.7544 65.5537 61.5605 65.2706C61.3666 64.9875 61.2696 64.632 61.2696 64.2042V57.2102ZM65.631 66V58.9091H67.0114V66H65.631ZM66.3281 57.815C66.0881 57.815 65.8819 57.735 65.7095 57.5749C65.5402 57.4118 65.4556 57.2179 65.4556 56.9933C65.4556 56.7655 65.5402 56.5716 65.7095 56.4116C65.8819 56.2485 66.0881 56.1669 66.3281 56.1669C66.5682 56.1669 66.7728 56.2485 66.9421 56.4116C67.1145 56.5716 67.2006 56.7655 67.2006 56.9933C67.2006 57.2179 67.1145 57.4118 66.9421 57.5749C66.7728 57.735 66.5682 57.815 66.3281 57.815ZM70.2487 61.7898V66H68.8683V58.9091H70.1933V60.0632H70.281C70.4441 59.6877 70.6995 59.3861 71.0473 59.1584C71.3982 58.9306 71.8398 58.8168 72.3722 58.8168C72.8554 58.8168 73.2786 58.9183 73.6418 59.1214C74.0049 59.3215 74.2865 59.62 74.4866 60.017C74.6866 60.4141 74.7867 60.9049 74.7867 61.4897V66H73.4063V61.6559C73.4063 61.1419 73.2725 60.7403 73.0047 60.451C72.7369 60.1586 72.3692 60.0124 71.9014 60.0124C71.5813 60.0124 71.2966 60.0817 71.0473 60.2202C70.8011 60.3587 70.6057 60.5618 70.461 60.8295C70.3195 61.0942 70.2487 61.4143 70.2487 61.7898ZM79.6109 68.8068C79.0477 68.8068 78.5629 68.733 78.1567 68.5852C77.7535 68.4375 77.4242 68.2421 77.1688 67.9989C76.9133 67.7558 76.7225 67.4896 76.5963 67.2003L77.7828 66.7109C77.8659 66.8464 77.9767 66.9895 78.1151 67.1403C78.2567 67.2942 78.4475 67.425 78.6876 67.5327C78.9307 67.6404 79.2431 67.6942 79.6247 67.6942C80.1479 67.6942 80.5803 67.5665 80.922 67.3111C81.2636 67.0587 81.4344 66.6555 81.4344 66.1016V64.7074H81.3467C81.2636 64.8582 81.1436 65.0259 80.9866 65.2106C80.8327 65.3952 80.6204 65.5553 80.3495 65.6907C80.0787 65.8261 79.7263 65.8938 79.2923 65.8938C78.7322 65.8938 78.2275 65.763 77.7781 65.5014C77.3319 65.2367 76.978 64.8474 76.7164 64.3335C76.4578 63.8164 76.3286 63.1809 76.3286 62.4268C76.3286 61.6728 76.4563 61.0265 76.7117 60.4879C76.9703 59.9493 77.3242 59.5369 77.7735 59.2507C78.2229 58.9614 78.7322 58.8168 79.3016 58.8168C79.7417 58.8168 80.0972 58.8906 80.368 59.0384C80.6388 59.183 80.8496 59.3523 81.0004 59.5462C81.1543 59.7401 81.2728 59.9109 81.3559 60.0586H81.4575V58.9091H82.8101V66.157C82.8101 66.7663 82.6685 67.2665 82.3854 67.6573C82.1022 68.0482 81.7191 68.3375 81.2359 68.5252C80.7558 68.7129 80.2141 68.8068 79.6109 68.8068ZM79.597 64.7489C79.9941 64.7489 80.3295 64.6566 80.6034 64.4719C80.8804 64.2842 81.0897 64.0165 81.2313 63.6687C81.3759 63.3178 81.4482 62.8977 81.4482 62.4084C81.4482 61.9313 81.3775 61.5112 81.2359 61.1481C81.0943 60.7849 80.8866 60.5018 80.6127 60.2987C80.3387 60.0924 80.0002 59.9893 79.597 59.9893C79.1816 59.9893 78.8353 60.0971 78.5583 60.3125C78.2813 60.5249 78.0721 60.8142 77.9305 61.1804C77.792 61.5466 77.7227 61.956 77.7227 62.4084C77.7227 62.8731 77.7935 63.2809 77.9351 63.6317C78.0767 63.9826 78.286 64.2565 78.5629 64.4535C78.843 64.6504 79.1877 64.7489 79.597 64.7489ZM89.9749 60.6403L88.7238 60.8619C88.6715 60.7018 88.5884 60.5495 88.4745 60.4048C88.3637 60.2602 88.2129 60.1417 88.0221 60.0494C87.8313 59.957 87.5928 59.9109 87.3066 59.9109C86.9157 59.9109 86.5895 59.9986 86.3279 60.174C86.0663 60.3464 85.9355 60.5695 85.9355 60.8434C85.9355 61.0804 86.0232 61.2712 86.1986 61.4158C86.374 61.5605 86.6572 61.679 87.048 61.7713L88.1744 62.0298C88.8269 62.1806 89.3132 62.413 89.6333 62.7269C89.9533 63.0408 90.1134 63.4486 90.1134 63.9503C90.1134 64.375 89.9903 64.7536 89.7441 65.0859C89.5009 65.4152 89.1608 65.6738 88.7238 65.8615C88.2899 66.0492 87.7867 66.1431 87.2142 66.1431C86.4202 66.1431 85.7723 65.9738 85.2707 65.6353C84.769 65.2937 84.4613 64.8089 84.3474 64.1811L85.6816 63.978C85.7646 64.3258 85.9355 64.5889 86.194 64.7674C86.4525 64.9428 86.7895 65.0305 87.205 65.0305C87.6574 65.0305 88.019 64.9367 88.2899 64.7489C88.5607 64.5581 88.6961 64.3258 88.6961 64.0518C88.6961 63.8303 88.613 63.6441 88.4468 63.4933C88.2837 63.3424 88.0329 63.2286 87.6943 63.1516L86.4941 62.8885C85.8324 62.7377 85.343 62.4976 85.026 62.1683C84.7121 61.839 84.5551 61.422 84.5551 60.9173C84.5551 60.4987 84.6721 60.1325 84.906 59.8185C85.1399 59.5046 85.463 59.2599 85.8754 59.0845C86.2878 58.906 86.7603 58.8168 87.2927 58.8168C88.059 58.8168 88.6623 58.983 89.1024 59.3153C89.5425 59.6446 89.8333 60.0863 89.9749 60.6403Z" fill="white"/>
<rect x="190.033" y="53" width="17" height="16" rx="8" fill="#2563EB"/>
<path d="M196.55 64V63.2386L198.57 61.2585C198.763 61.0634 198.924 60.8902 199.053 60.7386C199.182 60.5871 199.278 60.4403 199.343 60.2983C199.407 60.1562 199.439 60.0047 199.439 59.8438C199.439 59.66 199.398 59.5028 199.314 59.3722C199.231 59.2396 199.117 59.1373 198.971 59.0653C198.825 58.9934 198.659 58.9574 198.474 58.9574C198.282 58.9574 198.115 58.9972 197.971 59.0767C197.827 59.1544 197.715 59.2652 197.635 59.4091C197.558 59.553 197.519 59.7244 197.519 59.9233H196.516C196.516 59.554 196.6 59.233 196.769 58.9602C196.938 58.6875 197.17 58.4763 197.465 58.3267C197.762 58.1771 198.103 58.1023 198.488 58.1023C198.878 58.1023 199.221 58.1752 199.516 58.321C199.812 58.4669 200.041 58.6667 200.204 58.9205C200.368 59.1742 200.451 59.464 200.451 59.7898C200.451 60.0076 200.409 60.2216 200.326 60.4318C200.242 60.642 200.096 60.875 199.885 61.1307C199.677 61.3864 199.385 61.696 199.008 62.0597L198.005 63.0795V63.1193H200.539V64H196.55Z" fill="white"/>
<rect x="0.0332031" y="81" width="222" height="1" fill="#37416C"/>
<g clip-path="url(#clip3_876_591)">
<path d="M21.0332 108C21.431 108 21.8126 107.842 22.0939 107.561C22.3752 107.279 22.5332 106.898 22.5332 106.5H19.5332C19.5332 106.898 19.6912 107.279 19.9725 107.561C20.2538 107.842 20.6354 108 21.0332 108ZM21.0332 97.4384L20.4355 97.5592C19.7574 97.6973 19.148 98.0655 18.7102 98.6014C18.2724 99.1373 18.0333 99.808 18.0332 100.5C18.0332 100.971 17.9327 102.148 17.689 103.306C17.569 103.882 17.407 104.481 17.1917 105H24.8747C24.6595 104.481 24.4982 103.882 24.3775 103.306C24.1337 102.148 24.0332 100.971 24.0332 100.5C24.033 99.8081 23.7937 99.1376 23.356 98.6019C22.9182 98.0661 22.3089 97.698 21.631 97.5599L21.0332 97.4377V97.4384ZM25.6982 105C25.8655 105.335 26.059 105.601 26.2832 105.75H15.7832C16.0075 105.601 16.201 105.335 16.3682 105C17.0432 103.65 17.2832 101.16 17.2832 100.5C17.2832 98.6849 18.5732 97.1699 20.287 96.8242C20.2765 96.7199 20.288 96.6146 20.3207 96.515C20.3535 96.4154 20.4067 96.3238 20.477 96.2461C20.5473 96.1684 20.6332 96.1063 20.729 96.0638C20.8247 96.0212 20.9284 95.9993 21.0332 95.9993C21.138 95.9993 21.2417 96.0212 21.3375 96.0638C21.4333 96.1063 21.5191 96.1684 21.5894 96.2461C21.6597 96.3238 21.7129 96.4154 21.7457 96.515C21.7784 96.6146 21.7899 96.7199 21.7795 96.8242C22.6272 96.9966 23.3892 97.4567 23.9366 98.1265C24.484 98.7964 24.7831 99.6349 24.7832 100.5C24.7832 101.16 25.0232 103.65 25.6982 105Z" fill="#9095AE"/>
</g>
<path d="M47.7029 97.5455V107H46.3919L41.5861 100.066H41.4984V107H40.0719V97.5455H41.3922L46.2026 104.489H46.2903V97.5455H47.7029ZM52.7291 107.143C52.0305 107.143 51.4288 106.994 50.9241 106.695C50.4224 106.394 50.0347 105.971 49.7607 105.426C49.4899 104.878 49.3545 104.236 49.3545 103.501C49.3545 102.774 49.4899 102.134 49.7607 101.58C50.0347 101.026 50.4163 100.594 50.9056 100.283C51.3981 99.9722 51.9736 99.8168 52.6322 99.8168C53.0323 99.8168 53.4201 99.8829 53.7955 100.015C54.171 100.148 54.508 100.355 54.8066 100.638C55.1051 100.922 55.3405 101.289 55.5129 101.742C55.6852 102.191 55.7714 102.737 55.7714 103.381V103.87H50.1347V102.836H54.4188C54.4188 102.473 54.3449 102.151 54.1972 101.871C54.0494 101.588 53.8417 101.365 53.574 101.202C53.3093 101.039 52.9984 100.957 52.6414 100.957C52.2536 100.957 51.9151 101.052 51.6258 101.243C51.3396 101.431 51.118 101.677 50.961 101.982C50.8071 102.283 50.7302 102.611 50.7302 102.965V103.773C50.7302 104.247 50.8133 104.65 50.9795 104.983C51.1488 105.315 51.3842 105.569 51.6858 105.744C51.9874 105.917 52.3398 106.003 52.743 106.003C53.0046 106.003 53.2431 105.966 53.4585 105.892C53.674 105.815 53.8602 105.701 54.0171 105.55C54.1741 105.4 54.2941 105.213 54.3772 104.992L55.6837 105.227C55.579 105.612 55.3913 105.949 55.1205 106.238C54.8527 106.525 54.5157 106.748 54.1095 106.908C53.7063 107.065 53.2462 107.143 52.7291 107.143ZM58.8275 107L56.7409 99.9091H58.1673L59.5569 105.116H59.6262L61.0203 99.9091H62.4468L63.8318 105.093H63.901L65.2813 99.9091H66.7078L64.6258 107H63.2178L61.7774 101.88H61.6713L60.2309 107H58.8275ZM73.3313 101.64L72.0803 101.862C72.0279 101.702 71.9448 101.549 71.831 101.405C71.7202 101.26 71.5694 101.142 71.3786 101.049C71.1877 100.957 70.9492 100.911 70.663 100.911C70.2721 100.911 69.9459 100.999 69.6843 101.174C69.4227 101.346 69.2919 101.569 69.2919 101.843C69.2919 102.08 69.3796 102.271 69.555 102.416C69.7305 102.56 70.0136 102.679 70.4045 102.771L71.5309 103.03C72.1834 103.181 72.6696 103.413 72.9897 103.727C73.3098 104.041 73.4698 104.449 73.4698 104.95C73.4698 105.375 73.3467 105.754 73.1005 106.086C72.8574 106.415 72.5173 106.674 72.0803 106.862C71.6463 107.049 71.1431 107.143 70.5707 107.143C69.7766 107.143 69.1288 106.974 68.6271 106.635C68.1255 106.294 67.8177 105.809 67.7038 105.181L69.038 104.978C69.1211 105.326 69.2919 105.589 69.5504 105.767C69.8089 105.943 70.146 106.031 70.5614 106.031C71.0138 106.031 71.3755 105.937 71.6463 105.749C71.9171 105.558 72.0526 105.326 72.0526 105.052C72.0526 104.83 71.9695 104.644 71.8033 104.493C71.6402 104.342 71.3893 104.229 71.0508 104.152L69.8505 103.888C69.1888 103.738 68.6995 103.498 68.3825 103.168C68.0685 102.839 67.9116 102.422 67.9116 101.917C67.9116 101.499 68.0285 101.132 68.2624 100.819C68.4963 100.505 68.8195 100.26 69.2319 100.085C69.6443 99.906 70.1167 99.8168 70.6491 99.8168C71.4155 99.8168 72.0187 99.983 72.4588 100.315C72.8989 100.645 73.1897 101.086 73.3313 101.64ZM76.3678 97.5455V107H74.9875V97.5455H76.3678ZM81.2809 107.143C80.5823 107.143 79.9806 106.994 79.4759 106.695C78.9742 106.394 78.5864 105.971 78.3125 105.426C78.0417 104.878 77.9062 104.236 77.9062 103.501C77.9062 102.774 78.0417 102.134 78.3125 101.58C78.5864 101.026 78.968 100.594 79.4574 100.283C79.9498 99.9722 80.5253 99.8168 81.1839 99.8168C81.584 99.8168 81.9718 99.8829 82.3473 100.015C82.7228 100.148 83.0598 100.355 83.3583 100.638C83.6568 100.922 83.8923 101.289 84.0646 101.742C84.237 102.191 84.3232 102.737 84.3232 103.381V103.87H78.6864V102.836H82.9705C82.9705 102.473 82.8967 102.151 82.7489 101.871C82.6012 101.588 82.3935 101.365 82.1257 101.202C81.861 101.039 81.5502 100.957 81.1932 100.957C80.8054 100.957 80.4669 101.052 80.1776 101.243C79.8913 101.431 79.6697 101.677 79.5128 101.982C79.3589 102.283 79.282 102.611 79.282 102.965V103.773C79.282 104.247 79.3651 104.65 79.5312 104.983C79.7005 105.315 79.936 105.569 80.2376 105.744C80.5392 105.917 80.8916 106.003 81.2947 106.003C81.5563 106.003 81.7949 105.966 82.0103 105.892C82.2257 105.815 82.4119 105.701 82.5689 105.55C82.7259 105.4 82.8459 105.213 82.929 104.992L84.2354 105.227C84.1308 105.612 83.9431 105.949 83.6722 106.238C83.4045 106.525 83.0675 106.748 82.6612 106.908C82.258 107.065 81.7979 107.143 81.2809 107.143ZM89.1647 99.9091V101.017H85.2915V99.9091H89.1647ZM86.3302 98.2102H87.7105V104.918C87.7105 105.186 87.7505 105.387 87.8305 105.523C87.9105 105.655 88.0136 105.746 88.1398 105.795C88.2691 105.841 88.4091 105.864 88.5599 105.864C88.6707 105.864 88.7677 105.857 88.8508 105.841C88.9339 105.826 88.9985 105.814 89.0447 105.804L89.2939 106.945C89.2139 106.975 89.1001 107.006 88.9523 107.037C88.8046 107.071 88.6199 107.089 88.3983 107.092C88.0352 107.098 87.6966 107.034 87.3827 106.898C87.0688 106.763 86.8149 106.554 86.621 106.271C86.4271 105.987 86.3302 105.632 86.3302 105.204V98.2102ZM94.0016 99.9091V101.017H90.1284V99.9091H94.0016ZM91.1671 98.2102H92.5474V104.918C92.5474 105.186 92.5874 105.387 92.6674 105.523C92.7475 105.655 92.8506 105.746 92.9767 105.795C93.106 105.841 93.246 105.864 93.3968 105.864C93.5076 105.864 93.6046 105.857 93.6877 105.841C93.7708 105.826 93.8354 105.814 93.8816 105.804L94.1309 106.945C94.0508 106.975 93.937 107.006 93.7892 107.037C93.6415 107.071 93.4569 107.089 93.2353 107.092C92.8721 107.098 92.5336 107.034 92.2196 106.898C91.9057 106.763 91.6518 106.554 91.4579 106.271C91.264 105.987 91.1671 105.632 91.1671 105.204V98.2102ZM98.5084 107.143C97.8098 107.143 97.2081 106.994 96.7034 106.695C96.2017 106.394 95.814 105.971 95.54 105.426C95.2692 104.878 95.1338 104.236 95.1338 103.501C95.1338 102.774 95.2692 102.134 95.54 101.58C95.814 101.026 96.1956 100.594 96.6849 100.283C97.1773 99.9722 97.7529 99.8168 98.4115 99.8168C98.8116 99.8168 99.1994 99.8829 99.5748 100.015C99.9503 100.148 100.287 100.355 100.586 100.638C100.884 100.922 101.12 101.289 101.292 101.742C101.465 102.191 101.551 102.737 101.551 103.381V103.87H95.914V102.836H100.198C100.198 102.473 100.124 102.151 99.9765 101.871C99.8287 101.588 99.621 101.365 99.3532 101.202C99.0886 101.039 98.7777 100.957 98.4207 100.957C98.0329 100.957 97.6944 101.052 97.4051 101.243C97.1189 101.431 96.8973 101.677 96.7403 101.982C96.5864 102.283 96.5095 102.611 96.5095 102.965V103.773C96.5095 104.247 96.5926 104.65 96.7588 104.983C96.9281 105.315 97.1635 105.569 97.4651 105.744C97.7667 105.917 98.1191 106.003 98.5223 106.003C98.7839 106.003 99.0224 105.966 99.2378 105.892C99.4533 105.815 99.6395 105.701 99.7964 105.55C99.9534 105.4 100.073 105.213 100.157 104.992L101.463 105.227C101.358 105.612 101.171 105.949 100.9 106.238C100.632 106.525 100.295 106.748 99.8888 106.908C99.4856 107.065 99.0255 107.143 98.5084 107.143ZM103.082 107V99.9091H104.416V101.036H104.49C104.619 100.654 104.847 100.354 105.173 100.135C105.503 99.9137 105.875 99.8029 106.291 99.8029C106.377 99.8029 106.478 99.806 106.595 99.8121C106.715 99.8183 106.809 99.826 106.877 99.8352V101.156C106.822 101.14 106.723 101.123 106.581 101.105C106.44 101.083 106.298 101.072 106.157 101.072C105.831 101.072 105.54 101.142 105.284 101.28C105.032 101.416 104.832 101.605 104.684 101.848C104.536 102.088 104.463 102.362 104.463 102.67V107H103.082Z" fill="white"/>
<rect x="179.033" y="94" width="28" height="16" rx="8" fill="#2563EB"/>
<path d="M187.57 99.1023C187.849 99.1042 188.119 99.1534 188.383 99.25C188.648 99.3447 188.886 99.5 189.099 99.7159C189.311 99.9299 189.479 100.217 189.604 100.577C189.729 100.937 189.792 101.382 189.792 101.912C189.794 102.412 189.741 102.859 189.633 103.253C189.527 103.645 189.374 103.976 189.175 104.247C188.976 104.518 188.737 104.724 188.456 104.866C188.176 105.009 187.861 105.08 187.51 105.08C187.143 105.08 186.817 105.008 186.533 104.864C186.251 104.72 186.023 104.523 185.849 104.273C185.674 104.023 185.567 103.737 185.528 103.415H186.564C186.617 103.646 186.725 103.83 186.888 103.966C187.053 104.1 187.26 104.168 187.51 104.168C187.914 104.168 188.224 103.992 188.442 103.642C188.66 103.292 188.769 102.805 188.769 102.182H188.729C188.636 102.348 188.516 102.492 188.368 102.614C188.221 102.733 188.053 102.825 187.866 102.889C187.68 102.954 187.483 102.986 187.275 102.986C186.934 102.986 186.627 102.904 186.354 102.741C186.083 102.579 185.868 102.355 185.709 102.071C185.552 101.787 185.473 101.462 185.471 101.097C185.471 100.718 185.558 100.378 185.732 100.077C185.908 99.7737 186.153 99.535 186.468 99.3608C186.782 99.1847 187.15 99.0985 187.57 99.1023ZM187.573 99.9545C187.368 99.9545 187.184 100.005 187.019 100.105C186.856 100.204 186.727 100.338 186.633 100.509C186.54 100.677 186.493 100.866 186.493 101.074C186.495 101.28 186.542 101.468 186.633 101.636C186.725 101.805 186.851 101.938 187.01 102.037C187.171 102.135 187.355 102.185 187.562 102.185C187.715 102.185 187.858 102.155 187.991 102.097C188.123 102.038 188.239 101.956 188.337 101.852C188.438 101.746 188.515 101.626 188.57 101.491C188.627 101.357 188.654 101.215 188.653 101.065C188.653 100.866 188.605 100.683 188.51 100.514C188.418 100.346 188.29 100.21 188.127 100.108C187.966 100.006 187.781 99.9545 187.573 99.9545ZM192.758 99.1023C193.036 99.1042 193.307 99.1534 193.57 99.25C193.835 99.3447 194.074 99.5 194.286 99.7159C194.498 99.9299 194.667 100.217 194.792 100.577C194.917 100.937 194.979 101.382 194.979 101.912C194.981 102.412 194.928 102.859 194.82 103.253C194.714 103.645 194.562 103.976 194.363 104.247C194.164 104.518 193.924 104.724 193.644 104.866C193.364 105.009 193.048 105.08 192.698 105.08C192.331 105.08 192.005 105.008 191.721 104.864C191.439 104.72 191.21 104.523 191.036 104.273C190.862 104.023 190.755 103.737 190.715 103.415H191.752C191.805 103.646 191.913 103.83 192.076 103.966C192.241 104.1 192.448 104.168 192.698 104.168C193.101 104.168 193.412 103.992 193.63 103.642C193.848 103.292 193.956 102.805 193.956 102.182H193.917C193.824 102.348 193.704 102.492 193.556 102.614C193.408 102.733 193.241 102.825 193.053 102.889C192.867 102.954 192.671 102.986 192.462 102.986C192.121 102.986 191.814 102.904 191.542 102.741C191.271 102.579 191.056 102.355 190.897 102.071C190.74 101.787 190.66 101.462 190.658 101.097C190.658 100.718 190.745 100.378 190.92 100.077C191.096 99.7737 191.341 99.535 191.655 99.3608C191.97 99.1847 192.337 99.0985 192.758 99.1023ZM192.76 99.9545C192.556 99.9545 192.371 100.005 192.206 100.105C192.044 100.204 191.915 100.338 191.82 100.509C191.727 100.677 191.681 100.866 191.681 101.074C191.683 101.28 191.729 101.468 191.82 101.636C191.913 101.805 192.039 101.938 192.198 102.037C192.359 102.135 192.543 102.185 192.749 102.185C192.903 102.185 193.046 102.155 193.178 102.097C193.311 102.038 193.426 101.956 193.525 101.852C193.625 101.746 193.703 101.626 193.758 101.491C193.814 101.357 193.842 101.215 193.84 101.065C193.84 100.866 193.793 100.683 193.698 100.514C193.605 100.346 193.477 100.21 193.314 100.108C193.153 100.006 192.969 99.9545 192.76 99.9545ZM197.653 104.068V100.136H198.545V104.068H197.653ZM196.133 102.548V101.656H200.064V102.548H196.133Z" fill="white"/>
</g>
<rect x="0.533203" y="0.5" width="221" height="121" rx="6.5" stroke="#37416C"/>
</g>
<defs>
<clipPath id="clip0_876_591">
<rect width="222" height="122" fill="white" transform="translate(0.0332031)"/>
</clipPath>
<clipPath id="clip1_876_591">
<rect x="0.0332031" width="222" height="122" rx="7" fill="white"/>
</clipPath>
<clipPath id="clip2_876_591">
<rect width="12" height="12" fill="white" transform="translate(15.0332 55)"/>
</clipPath>
<clipPath id="clip3_876_591">
<rect width="12" height="12" fill="white" transform="translate(15.0332 96)"/>
</clipPath>
</defs>
</svg>
